<?xml version="1.0" encoding="utf-8"?>
<!-- Generator: Adobe Illustrator 25.3.1, SVG Export Plug-In . SVG Version: 6.00 Build 0)  -->
<svg version="1.1" id="Layer_1" xmlns="http://www.w3.org/2000/svg" xmlns:xlink="http://www.w3.org/1999/xlink" x="0px" y="0px"
	 viewBox="0 0 64 64" style="enable-background:new 0 0 64 64;" xml:space="preserve">
<style type="text/css">
	.st0{fill:#F6B141;}
	.st1{fill:#007EC4;}
</style>
<path class="st0" d="M0.4,14.4h6.4l5.9,6H6.6v19.9c0,0,1.5,15.8,17.8,17.2c0,0,16.7,0.9,19-18.5V20.5H37l6.3-6.1h6v24.8
	c0,0,0.3,17.5-15.9,22.8c0,0-6.8,3-16.3,0.5c0,0-15.2-4.5-16.7-22.2V14.4z"/>
<path class="st1" d="M15.1,48.7h6.4l5.9-6h-6.1V22.8c0,0,1.5-15.8,17.8-17.2c0,0,16.7-0.9,19,18.5v18.6h-6.3l6.3,6.1h6V24
	c0,0,0.3-17.5-15.9-22.8c0,0-6.8-3-16.3-0.5c0,0-15.2,4.5-16.7,22.2V48.7z"/>
</svg>
